<?xml version="1.0" encoding="UTF-8" standalone="no"?>
<svg xmlns="http://www.w3.org/2000/svg" id="svg2" viewBox="0 0 150 116" height="116" width="150">
    <g fill-rule="evenodd" fill="none" id="Guidance">
        <g id="hihglight-logo">
            <g transform="translate(0 15)" id="Group">
                <path fill="#FC3" id="Combined-Shape" d="M78.876 54H0v21h90v-5.207H72.805l6.94-12.025-2.312-1.312z"/>
                <path fill="#C8CCD1" id="polygon14" d="M102.694 4H132V0H18v4h79.836l1.214-2.068L102.694 4z"/>
                <path fill="#C8CCD1" id="path16" d="M87.853 21H18v4h67.504l2.349-4zm44.104 0H132v4h-2.392l2.35-4z"/>
                <path fill="#C8CCD1" id="path18" d="M82.242 42H18v4h63.812c.233-1.321.379-2.675.43-4zm37.384 0H132v4h-14.723l2.349-4z"/>
                <path fill="#7B4E10" id="polygon20" d="M76.725 63H18v4h56.417l2.308-4z"/>
                <path fill="#C8CCD1" id="path22" d="M96.894 63H132v4H91.696l1.04-1.857 2.174 1.234 1.93-3.288.054-.089z"/>
                <path fill="#C8CCD1" id="Rectangle-9-Copy-42" d="M18 82h114v4H18z"/>
                <path fill="#222" id="path25" d="M81.996 54.611c3.018-5.14 4.147-13.944 2.522-19.663l-.439-1.543.62-1.11L100.14 6 128 21.815 112.559 48.11l-.63 1.073-1.616.407c-5.85 1.476-13.044 6.845-16.06 11.98l-.433.739-2.229-1.266-3.217 5.75H78l5.853-10.142-2.291-1.3.434-.74z"/>
            </g>
        </g>
    </g>
</svg>
